<svg id="vector"
     xmlns="http://www.w3.org/2000/svg"
     width="16"
     height="16"
     viewBox="0 0 16 16">
    <path
        fill="#D8D8D8"
        d="M0,0h16v16h-16z"
        stroke-opacity="0"
        stroke-width="1"
        fill-rule="evenodd"
        stroke="#00000000"
        fill-opacity="0"
        id="path_0"/>
    <path
        fill="#8A9098"
        d="M4.9692,2.324C5.1467,2.1355 5.4359,2.1153 5.637,2.2694L5.676,2.3026L10.8269,7.1504C11.2961,7.592 11.3185,8.3304 10.8768,8.7996L10.8269,8.8496L5.676,13.6974C5.4749,13.8867 5.1585,13.8771 4.9692,13.676C4.7918,13.4875 4.7891,13.1976 4.9552,13.0062L4.9907,12.9692L10.1486,8.1142C10.2047,8.0546 10.2084,7.9647 10.1615,7.9011L10.1415,7.8786L4.9907,3.0308C4.7896,2.8415 4.78,2.5251 4.9692,2.324Z"
        stroke-width="1"
        fill-rule="nonzero"
        stroke="#00000000"
        id="path_1"/>
</svg>