<svg id="vector"
     xmlns="http://www.w3.org/2000/svg"
     width="24"
     height="24"
     viewBox="0 0 24 24">
  <path
    fill="#D8D8D8"
    d="M0,0h24v24h-24z"
    stroke-opacity="0"
    stroke-width="1"
    fill-rule="evenodd"
    stroke="#00000000"
    fill-opacity="0"
    id="path_0"/>
  <path
    fill="#222222"
    d="M11,1C16.5228,1 21,5.4772 21,11C21,13.5217 20.0666,15.8255 18.5264,17.5845L22.4951,21.5523C22.7554,21.8126 22.7554,22.2347 22.4951,22.4951C22.2347,22.7554 21.8126,22.7554 21.5523,22.4951L17.5845,18.5264C15.8255,20.0666 13.5217,21 11,21C5.4772,21 1,16.5228 1,11C1,5.4772 5.4772,1 11,1ZM11,2.3333C6.2135,2.3333 2.3333,6.2135 2.3333,11C2.3333,15.7865 6.2135,19.6667 11,19.6667C15.7865,19.6667 19.6667,15.7865 19.6667,11C19.6667,6.2135 15.7865,2.3333 11,2.3333Z"
    stroke-width="1"
    fill-rule="nonzero"
    stroke="#00000000"
    id="path_1"/>
</svg>
