<svg id="vector" xmlns="http://www.w3.org/2000/svg" width="24" height="24" viewBox="0 0 24 24">
  <path fill="#D8D8D8" d="M0,0h24v24h-24z" stroke-opacity="0" stroke-width="1" fill-rule="evenodd" stroke="#00000000" fill-opacity="0" id="path_0"/>
  <path fill="#FFFFFF"
        d="M10.3561,2.7015L10.679,3.252C11.107,3.9816 12.0454,4.226 12.775,3.798C13.0007,3.6656 13.1887,3.4776 13.3211,3.252L13.644,2.7015C14.1975,1.758 15.4062,1.4342 16.3572,1.9746L18.595,3.2462C19.5325,3.779 19.8751,4.9551 19.3833,5.9042L19.3321,5.997L19.0371,6.4999C18.6192,7.2123 18.858,8.1286 19.5704,8.5464C19.7998,8.681 20.0609,8.7519 20.3269,8.752L21,8.752C22.1046,8.7522 23,9.6476 23,10.7521L23,13.248C23,14.3526 22.1047,15.248 21.0001,15.248L20.3271,15.2479C19.5012,15.2478 18.8316,15.9173 18.8316,16.7433C18.8316,17.0093 18.9025,17.2705 19.0371,17.4999L19.3322,18.0031C19.891,18.9559 19.5716,20.1813 18.6188,20.7401L16.3572,22.0255C15.4062,22.5659 14.1975,22.2421 13.644,21.2986L13.3211,20.7481C12.8931,20.0185 11.9547,19.774 11.2251,20.2021C10.9994,20.3344 10.8114,20.5224 10.679,20.7481L10.3561,21.2986C9.8026,22.2421 8.5939,22.5659 7.6429,22.0255L5.4051,20.7539C4.4677,20.2212 4.125,19.045 4.6169,18.096L4.6681,18.0031L4.9633,17.4999C5.3812,16.7875 5.1425,15.8713 4.4301,15.4534C4.2006,15.3188 3.9394,15.2478 3.6734,15.2479L3,15.2479C1.9206,15.248 1.0408,14.3929 1.0013,13.3231L1,13.248L1,10.7521C1,9.6476 1.8955,8.7522 3,8.752L3.6736,8.752C4.4995,8.7519 5.1689,8.0824 5.1689,7.2565C5.1689,6.9905 5.0979,6.7293 4.9633,6.4999L4.6683,5.997C4.1227,5.067 4.4139,3.8771 5.3143,3.301L5.4052,3.2461L7.6429,1.9746C8.5939,1.4342 9.8026,1.758 10.3561,2.7015ZM8.3498,3.109L8.3016,3.1339L6.056,4.41C5.7535,4.5874 5.6426,4.9664 5.7937,5.2764L5.8183,5.3224L6.1133,5.8252C6.3679,6.2592 6.5022,6.7533 6.5022,7.2564C6.5023,8.7903 5.2815,10.0391 3.7586,10.084L3.6737,10.0853L3.0002,10.0853C2.6487,10.0854 2.3607,10.3574 2.3352,10.7024L2.3334,10.7521L2.3338,13.2739C2.3463,13.6134 2.6138,13.8874 2.9492,13.9127L3,13.9146L3.6733,13.9145C4.1765,13.9145 4.6706,14.0487 5.1047,14.3033C6.4263,15.0786 6.8861,16.7607 6.1576,18.0964L6.1134,18.1745L5.8136,18.6857C5.6404,18.9905 5.7337,19.3742 6.0196,19.5672L6.0639,19.5947L8.3016,20.8662C8.6028,21.0374 8.9814,20.9485 9.1767,20.6696L9.206,20.6239L9.5289,20.0735C9.7766,19.6513 10.1283,19.2997 10.5504,19.052C11.8894,18.2665 13.6044,18.6919 14.4248,19.9972L14.4712,20.0735L14.7941,20.6239C14.9693,20.9227 15.3417,21.0351 15.6503,20.8911L15.6985,20.8662L17.9443,19.59C18.2468,19.4126 18.3577,19.0337 18.2067,18.7236L18.1821,18.6777L17.8869,18.1744C17.6324,17.7404 17.4982,17.2464 17.4982,16.7432C17.4983,15.2093 18.7193,13.9606 20.2425,13.9158L20.3274,13.9145L21.0001,13.9147C21.3683,13.9147 21.6667,13.6162 21.6667,13.2481L21.6667,10.7522C21.6667,10.4007 21.3946,10.1127 21.0497,10.0872L21,10.0853L20.3268,10.0853C19.8237,10.0853 19.3297,9.9511 18.8958,9.6965C17.5741,8.9213 17.1142,7.2392 17.8427,5.9035L17.887,5.8253L18.1865,5.3145C18.3598,5.0096 18.2664,4.6259 17.9806,4.433L17.9363,4.4055L15.6985,3.1339C15.3973,2.9627 15.0186,3.0516 14.8234,3.3305L14.7941,3.3761L14.4712,3.9266C14.2235,4.3488 13.8718,4.7004 13.4497,4.9481C12.1107,5.7336 10.3957,5.3082 9.5753,4.0029L9.5289,3.9266L9.206,3.3761C9.0307,3.0774 8.6584,2.965 8.3498,3.109ZM12,8C14.2091,8 16,9.7909 16,12C16,12.3682 15.7015,12.6667 15.3333,12.6667C14.9651,12.6667 14.6667,12.3682 14.6667,12C14.6667,10.5272 13.4728,9.3333 12,9.3333C10.5272,9.3333 9.3333,10.5272 9.3333,12C9.3333,13.4728 10.5272,14.6667 12,14.6667C12.3682,14.6667 12.6667,14.9651 12.6667,15.3333C12.6667,15.7015 12.3682,16 12,16C9.7909,16 8,14.2091 8,12C8,9.7909 9.7909,8 12,8Z"
        stroke-width="1" fill-rule="nonzero" stroke="#00000000" id="path_1"/>
</svg>
